<svg xmlns="http://www.w3.org/2000/svg" viewBox="0 0 704 704" fill="none" shape-rendering="auto"><metadata xmlns:rdf="http://www.w3.org/1999/02/22-rdf-syntax-ns#" xmlns:xsi="http://www.w3.org/2001/XMLSchema-instance" xmlns:dc="http://purl.org/dc/elements/1.1/" xmlns:dcterms="http://purl.org/dc/terms/"><rdf:RDF><rdf:Description><dc:title>Open Peeps</dc:title><dc:creator>Pablo Stanley</dc:creator><dc:source xsi:type="dcterms:URI">https://www.openpeeps.com/</dc:source><dcterms:license xsi:type="dcterms:URI">https://creativecommons.org/publicdomain/zero/1.0/</dcterms:license><dc:rights>Remix of „Open Peeps” (https://www.openpeeps.com/) by „Pablo Stanley”, licensed under „CC0 1.0” (https://creativecommons.org/publicdomain/zero/1.0/)</dc:rights></rdf:Description></rdf:RDF></metadata><mask id="viewboxMask"><rect width="704" height="704" rx="0" ry="0" x="0" y="0" fill="#fff" /></mask><g mask="url(#viewboxMask)"><g fill-rule="evenodd" clip-rule="evenodd"><path d="M705.3 1074a2351.1 2351.1 0 0 1-15.6-101c-1-7.7-2.5-16.4 2.7-22 7.3-8 14-14.8 14.8-26.2.8-10.7-2.8-22.4-5-32.8a809.4 809.4 0 0 0-17.3-64.7c-6.6-21.7-13.9-43.2-21.3-64.6-6.9-20-13.5-40.3-22.5-59.5-17-36.5-46-63.5-81.6-81.6-9-4.5-27-20.5-36.3-24-8.5-3.4-8.5 6.3-16.9 2.6-6.7-2.9-13-6.7-16.7-13.2-4-7-14.3-16.9-15.9-25-3.3-17.4.3-32.2-12-45.3a90 90 0 0 0-41.1-23.8c-33.7-9.3-78.5-2.8-98.8 28.5-9.7 14.9-13 33-26.2 45.1-11.4 10.7-8.8 18-23.6 23.4-.9.3-23.6-4.5-24.4-4.2-16.2-3.5-31.7 6.2-46.5 11.8a325.4 325.4 0 0 0-63 32.3 399.2 399.2 0 0 0-102.3 98.5 482.5 482.5 0 0 0-76.4 161c-1.7 6.4-3.5 13-1.5 19.4 1.7 5.3 5.4 9.2 9.8 12.4 6 4.3 18 7 17.7 15.7-.1 6.6-2.4 13.5-3.5 20-1.3 7.7-2.3 15.5-3.4 23.2-4.8 35.4-8.6 71-10.3 106.6a920 920 0 0 0-.5 106c.1 2.3.8 4.5 2 6.2-1 .4-1.2 2.4.1 2.7l2.7.5a12 12 0 0 0 7 2.4l5.5.2c19.3 4 38.6 7.9 58.1 10.8 23.8 3.5 47.6 6.3 71.5 8.7 49.2 4.8 98 3.2 147.1.6a1877 1877 0 0 1 147.4-2c49.2 1.4 98.4 3.5 147.6 4.4 55 1 110-.5 164.8-5 7.5-.5 12.2-6.5 10.7-14-8.9-44.7-19-89.1-27-134Z" fill="#ae5d29"/><path d="m201 597.5 1.2-.4c14.5-5.7 29.6-14.8 45.4-11.4.5-.2 10.8 1.9 17.9 3.2l-6.7 7L247 598c40.7 67.1 88.8 100.7 144.3 100.7 55.5 0 97.7-33.6 126.4-100.7l4-1c.4 0 1 .2 1.5.4 9.3 3.6 27.4 19.6 36.3 24.1 35.6 18 64.5 45 81.6 81.6 8.7 18.6 15.2 38 21.8 57.5l.7 2c7.4 21.4 14.7 43 21.3 64.6 6.3 20.4 12 41 16.6 61.8l.7 2.9c2.2 10.4 5.8 22 5 32.8a29 29 0 0 1-3 10.7l-80.4 29 38.4 261.3c-35.1 1.5-70.3 2-105.5 1.3-49.2-.9-98.4-3-147.6-4.3-47.7-1.2-95.3-.7-143 1.7l-12 .6a946.3 946.3 0 0 1-139.5-1l-3.1-.3v-38.3l16.3-212.9-83-15.6-81.3-39.5a21.7 21.7 0 0 1-5.6-8.8c-1.9-6-.5-12 1-18l.5-1.3a492.8 492.8 0 0 1 76.4-161A399.3 399.3 0 0 1 138 629.7c19.8-13 40.9-23.9 63-32.3Z" fill="#78e185"/><path d="M232.2 584.6c5.1-.3 10.3.6 15.4 1 .4.1.6.8 0 .9-9 1.9-18 4.5-26.9 7.1l-3.8 1.2c-10 3-19.8 6-29.6 10-19.4 7.9-37.8 18.5-54.8 30.8C67.2 682.8 20 754.3-9.9 828.3a526 526 0 0 0-24.3 77c-.4 1.6-2 5.4-1 7 .7 1.3 3.6 2.1 5 2.9l4.5 2.3 25.2 12.9 2.3 1.1c38 18.6 78.4 34.4 121 35.5l.4-3.7a342 342 0 0 1 9.9-60c.3-1 1.6-.6 1.7.3 3 23.1 2 46.4 1 69.7-1.8 41-4.3 82.2-6.5 123.3-1.2 20.6-2.6 41-3.9 61.7-1.3 20.5-1.7 41.6-4.7 62-.6 4.6-6 7-10 6.6-4.4-.5-7.9-4.5-8-9 0-11.9 1.5-24 2.4-35.8l2.5-33.8c3.1-41.1 6.8-82.2 10.2-123.3a4771 4771 0 0 1 3.8-43.7C76.4 979.8 34.2 963-6.1 943.5c-.6 13.2-2 26.5-3.4 39.6-3.8 36.8-7.1 73.6-9.6 110.5a2254.2 2254.2 0 0 0-4.2 92.7l-.2 7c0 4.4-.5 8.5-4.3 11.7-3.7 3.3-8.9 3.5-12.6 0-5-4.6-4.2-10.9-4-17.1a1675.6 1675.6 0 0 1 1.8-47.2 1321 1321 0 0 1 10.5-109.5l2-14c3.5-26 7.5-52.7 15.5-77.9-3.1-1.5-6.2-3-9.3-4.7-5.5-2.7-11.2-5.4-16.6-8.4-4.2-2.5-7.9-5.8-9-10.8-1.4-5.5.6-11.5 2-16.9v-.4a502 502 0 0 1 26.6-80 523.2 523.2 0 0 1 67.8-117 353.8 353.8 0 0 1 88.7-83.3 239 239 0 0 1 53.8-25.7 142.6 142.6 0 0 1 42.8-7.5Zm90.1-66c6-6.5 18.1.2 15.2 8.8a108.2 108.2 0 0 1-34.7 52A79.4 79.4 0 0 1 247 598l1.7 2.4a321.1 321.1 0 0 0 46.1 52.6c36 31.2 84.8 48 132 36 37.1-9.4 69.8-38.8 79.4-76.2-1.3.6-3 .9-4.8.5-7.7-1.7-15.3-9.8-20.3-15.6-5.3-6.3-9.5-13-12.6-20.7-5.6-14-7.4-32.1.3-45.7 1-1.7 3-.7 3.3 1l.3 2.5c1.5 12.7 3.3 25 9.3 36.6a76 76 0 0 0 18.2 23.1c2.6 2 5.8 3.6 8.1 6l.5.4c.6-5 4.1-7.3 7.6-7.2 3.3.2 7.3 1.6 8.8 2.3l.1.1a341 341 0 0 1 65.1 42 259 259 0 0 1 88.4 129c7.5 25.3 11.8 51.4 16.3 77.4l2.8 16c4.2 23.9 8.9 48.4 18.4 70.7 2.5 5.7.6 11.1-5.5 13.4A1493 1493 0 0 1 688 953c3.7 16 6 32.5 8.7 48.5 6 34.1 13.2 68 19.4 102 3.2 17.5 6.1 35 9.3 52.3l4.7 25.2 2.4 13.6.1.7c.5 2.4 1 4.9.4 7.3-.8 2.7-2.9 4.6-4.8 6.6-1.6 1.6-3.8 1.6-5.7.7l-.7-.3c-3.4-1.6-6-3.2-7.3-7-.7-2.5-1-5.2-1.5-7.7a3535.6 3535.6 0 0 1-7.8-43.6l-1.6-9.1c-5.2-31.4-10.2-62.9-12.8-94.5-1-14-2.3-28.1-3.5-42.2l-.9-10.5c-1.1-13.3-2.5-27-2.7-40.5l-4.5 1.6L657 964c-5.5 2-12.5 6-18.4 5.2-2.9-.3-5-1.2-6.8-2.9 2 28.8 4.8 57.4 8.5 86a1965.7 1965.7 0 0 0 22 135c.6 3.2 1.4 6.4 1.9 9.6.5 3.7-.5 5.9-2.5 9-1.7 2.4-5 3.7-7.8 2-3.6-2.3-5.5-4.3-6.5-8.4-1-3.7-1.6-7.6-2.3-11.4a1654.2 1654.2 0 0 1-11.4-65.2c-7.8-52-12.7-104.4-15.2-156.8a1388 1388 0 0 1-1.4-77.8c0-13.3.5-26.6 1.4-39.9 1-13.4 3-26.5 4.8-39.8 0-.5.7-.5.7 0 .8 14.9 2.1 29.8 2.8 44.7.6 14.3.9 28.5 1.4 42.8.6 18.7 1.5 37.5 2.7 56.2a9.6 9.6 0 0 1 8.5-3.1c4.7-1 9.7-3.4 14.1-5l16.8-5.5 26.4-8.7a679 679 0 0 1-18-80.8l-2-12.3c-4-24.2-8.5-48.5-15.8-72a229.8 229.8 0 0 0-34.8-68.2 370.2 370.2 0 0 0-52.7-55.3C557 627 539.7 614 523 600c.1.9.2 2 0 3-3.5 25.9-17 50-35.8 67.9-37.7 36-93.6 43.4-142 26.5-46.7-16.3-88-55-102.6-102.8-.3-.8.8-1 1.3-.5l2.4 3.3c0-.4.2-.9.7-1a129 129 0 0 0 46.6-29.2 100.2 100.2 0 0 0 21.3-33.3l.4-1c1.7-5 3.2-10.2 7-14.2Z" fill="#000"/></g><g transform="matrix(.99789 0 0 1 156 62)"><g fill-rule="evenodd" clip-rule="evenodd"><path d="M405.9 203.2c-10.3-37.2-49.7-53.4-85.2-56-96-10-193.7 43.5-236.3 130.3-34 66-35.1 135.2 38.1 172.8L135 457c3.7 3.4 7.5 6.7 11.7 9.5a228 228 0 0 0 136.2 35.1c70-1.4 95-49 110.4-109.9 16.1-60.6 25.1-126.5 12.6-188.5Z" fill="#ae5d29"/><path d="M451.8 553.7c-3.2-10-7.3-19.5-11.2-29.2-.8-4.8-1.3-9.7-1.4-14.6-.6-17.5 2.7-35.2 6.4-52.3 7.5-34.7 15.4-69 19.4-104.4 7-63.2 2.9-129-26-186.7-24.8-50-67-91-121.6-106.2-16.1-4.6-32.7-7-49.4-8l-6.2-1a329.7 329.7 0 0 0-70.3-3.8c-39 2.6-77.6 13.7-110 35.9A163.8 163.8 0 0 0 14.8 175C3.6 214.8 4.5 257.7-14.9 294.9c-5.7 11-12.4 21.4-18.8 32-17 19-35.3 40-39.3 66-5 32 13.5 59.2 31 84.2 15.8 22.6 37.2 53.9 21 81.7-7.7 13.2-20 23-29.2 35-9.6 12.4-17 26.7-21 42a89.2 89.2 0 0 0 18.9 80.9 99.1 99.1 0 0 0 37 25.4c14.4 6.1 28.5 12 40.4 22.4 5.4 4.8 10.4 10 15 15.5 4.4 6.8 9.5 13.2 15.3 19 6.3 6.5 18.7-2.3 13-9.9l-1.4-1.7A515 515 0 0 0 54 771a90.5 90.5 0 0 1-11.8-71.7 88.6 88.6 0 0 1 7.2-18.2l2 5c3 6.3 7 13.8 12.1 20.2.2 4.4.9 8.7 2.1 13 8 26.4 34.4 39.4 58.3 49.6l7 2.9c6.2 2.6 12.8-6.3 8.9-11.7l-3-4.3a85.7 85.7 0 0 1-13.5-58.7c3.2-21.9 16-40 28.9-57.3 12.5-17 26-34.5 31.7-55.3 6.2-23 .5-45.9-9-67-8.9-19.4-20.6-37.3-30.4-56 3.4 3.3 6.8 6.5 10.4 9.6 4 3.5 8.1 7.6 13 10 3.4 1.9 7-2.5 4.2-5.5-3.7-3.9-8.4-6.9-12.5-10.4a257.4 257.4 0 0 1-24.4-24 217 217 0 0 1-8.4-26.2c-3-12-5.8-24.8-5.6-37.3.2-12.8 6.8-21.7 15.7-30.3l11.3-10.8c8-6 15.6-12.5 23-19a649 649 0 0 0 47.5-47.3 524.8 524.8 0 0 0 31.8-35.6 150 150 0 0 0 28.4-14l-11.7 11.7a217.3 217.3 0 0 1-28 24.7c-1 .7-.4 2.3 1 2 12.8-2.5 24.8-6.8 36-13.6 11.5-7 21.6-16.4 31-25.9 5.3-2.4 10.4-5.4 15.1-8.5l.8-.5c-4.7 14.7-11.4 31.2-25.9 36.5-.5.1-.4 1 .1.9 12.2-.7 22-6.2 29.7-14.2a197.6 197.6 0 0 0 33.4-30.3c-6.9 13.7-14.6 27-22.2 40.2-.4.7.4 1.7 1.1 1.2 16.1-10.9 28.3-25 38.3-41.5l4.2-7.5c-1 4-2.1 7.9-3.4 11.7l-6.5 21c-1.2 3.8-2.6 7.5-4.2 11.2-1.1 2.6-2.6 5.1-2.8 8 0 .2.2.3.3.3 6.4-1.6 12.4-9 17-13.5 2.5-2.5 4.9-5.3 7-8.2.5 16.8.8 33.6.4 50.5-.7 31-2.7 62-5.3 92.8-2.2 27.2-3.9 55.9-19.1 79.6A92 92 0 0 1 308 488c-30 7-60-1-86.5-15.3-8-4.3-14.8 7.4-7 12.2a130 130 0 0 0 97.9 16c-1 38.5 18 75 36.8 107.7 10.6 18.3 21.2 36.5 28.7 56.3a192.2 192.2 0 0 1 12 52.3c1.8 21.2 0 42.5-2.9 63.5l-.5 3.4c-.6 4.5 3.4 8.3 7.8 6 19.4-10.2 27.8-32 32.9-52 4.8-18.9 8-38 9.8-57.4 2.6 7.3 4.8 14.8 6.4 22.4l.7 3.3c1.3 6.3 10.9 5.9 12.4 0l.8-3.3a269.2 269.2 0 0 0-5.5-149.4" fill="#000"/></g></g><g transform="translate(315 248)"><g fill-rule="evenodd" clip-rule="evenodd"><path d="M79.2 197.8c11-6.6 51.7-1.8 83.8 0 25.5 1.4 43.7-1.4 49.5 2.5 13.1 8.9 6.8 51.7-16 57.6-22.6 5.8-106.6 14-121 0-14.6-14-15.9-48.3 3.7-60.1Z" fill="#fff"/><path d="M93.3 186.5c17.2-2.1 33.8 3.1 50.6 5.8a236.6 236.6 0 0 0 32 3c.2-1.6 1-3 3-4 4-1.7 7.1-2.5 11.4-2.4 4 .2 8 .6 11.9 1.3a37 37 0 0 1 19.4 9.4c12 11.8 10.1 30.9.9 43.8-19.2 26.7-54.1 28-84 27.6h-2.8c-27.3-.5-66.3 3.6-78.7-27.4a43.6 43.6 0 0 1 1.7-35.6c6.6-13 20.6-19.8 34.6-21.5Zm85.2 44.4h-.2c-12.6.5-25.2.8-37.8 1a500.6 500.6 0 0 0 2.3 17.3c.2 1.1.8 2.8.6 3.8v.4a3.8 3.8 0 0 1 2 2.2c9.8 0 20.3-.1 30.2-1.9v-.2c.2-1.3.8-2.1 1.5-2.7.7-4 .6-8.4.9-12.4l.5-7.5Zm-47.6 1.2c-9 .2-18 .3-27.1.2h-4.2c1 4.6 1.9 9.2 2.6 14 .9 4.8-3.4 8-7.2 7.8l1.3.2c11.6 1.6 23.7 1.2 35.5 1.2-.6-3.7-.4-8-.5-11v-.5l-.4-11.9Zm-61.5-.8c.3 2.4 1 4.8 1.8 7 4 9.3 12.8 13.6 22.2 15.5-1.7-.6-3-2-3.3-4.2A128 128 0 0 1 89 232c-6.6 0-13.1-.2-19.6-.8Zm143.2-2c-4.7 1-10 .6-14.6.8l-12.9.5.6 8.8c.3 3.7.3 7.7 1 11.5 8.7-3 16.4-7.7 22.2-15.2 1.4-1.9 2.7-4 3.7-6.4ZM91.4 201.8c-7.8 1.8-15 5.7-19 12.8a27 27 0 0 0-3.2 14c6.5-.7 13.2-1 19.8-1.2l.1-3.6.1-3c.2-5.9.3-13.2 2.2-19Zm40 .7-3.3-.4c-9.5-1-19-2.2-28.4-1.6l-4.2.5c1.7 6 1.5 13.1 2.2 19.1l1 6.9h1.7c10.1-.6 20.3-1 30.5-1.4V218c.2-4.8-.1-10.3.6-15.4Zm47.6-.8a190.6 190.6 0 0 1-41.5 1.4l.5 6.2 1.3 12.4.5 3.6 37.5-1.9h1.7l.5-7c.4-4.6.7-9.2 1.3-13.8l-.4-.1-1.4-.8Zm4.4 1.7 1.2 19.6 8.2-.4 4.2-.2c5.3-.3 12.2-2 17.5-.4.4-4.8-1-9.5-5.3-12.7-7.7-5.7-17.3-3.7-25.8-5.9Zm-28.2-58.3c12.3-7 43-14.2 45 7.9 1 10.1-6.6 18.6-15.5 22.3l-.3.1c-8.3 3.4-23 7.3-30.1 0-6-6.2 2-17.2 9.3-12.2 3.9 2.6 11.9.7 16.1-.6h.3c4.6-1.4 10.7-5.7 8.8-11.3-1.7-5-8.8-6-13.3-6-6.7-.3-13.2 1.2-19.8 1.7-1 0-1.3-1.4-.5-2Zm50.8-35.5c16.7-.8 27 17.4 23.2 32.3-.6 2.6-3.5 5-6.3 4.8h-.7l-1-.2c-2.7-.8-5-3.5-4.8-6.4v-.8c.4-7-.4-15.1-8.7-16.8-7.1-1.5-11 5.3-11.2 11.6 0 1.1-1.2 2-2.2 1.3-5.2-3-6-9.3-4-14.6a17.2 17.2 0 0 1 15.7-11.2Zm-123.6 3.9c12.2-4 25.2 2.4 31.1 13.1 2 .6 4.1 2.2 3.8 4.6-.4 3.5-1 5.7-3.4 8.4-3.8 4.1-11 2-12.5-3.1v-.2c-1.9-6.6-9.1-11-15.7-8.7-7.8 2.7-7.5 10.9-13 15.6-.6.6-1.4.7-2.1.3-5.8-2.8-4.8-11.1-2.7-16 2.7-6.2 8-11.8 14.5-14ZM66 76.7c9.8-10 35.5-19.7 42.2-1.2 1.3 3.5-1.5 8.2-5.1 9-6 1.2-11.4-1.4-17.3-1a26 26 0 0 0-13.8 5c-10.7 8.3-13 22.3-20.5 32.9-.4.5-1 .3-1.1-.3a58.4 58.4 0 0 1 15.6-44.4ZM194 66.8a33 33 0 0 1 20.5 0 39.7 39.7 0 0 1 23 18.6c.8 1.5 1.7 4.4 2.6 6.2 5.1 3 7.3 9.7 2.7 14.5l-.2.3-.6.6a9.9 9.9 0 0 1-9.6 2.5c-7.5-2.2-8.4-8.1-11-14.4a25.8 25.8 0 0 0-8.3-10.6 39.8 39.8 0 0 0-32.6-5.4c-.5.1-1.1-.6-.8-1 2-2.6 3-4.6 5.7-6.6 2.6-2 5.5-3.6 8.6-4.7Z" fill="#000"/></g></g><g transform="translate(279 400)"></g><g transform="translate(179 343)"></g><g transform="translate(203 303)"><g fill-rule="evenodd" clip-rule="evenodd"><path d="M370.3 94c-9.2 11.5-45.1 24.3-64.3 10.5C287 90.6 279.3 81 276.8 63.7c-.3-1.8-3.6-3-5-1.7a96.6 96.6 0 0 0-18 26C248 98.5 242.3 109 232 116.3c-18.4 9.8-51.6 11.2-61.4 6.9a63.6 63.6 0 0 1-37-50.6s-3.4-10.8-6.5-13.1c-2.8-2.2-18.6-4.1-20.3-4.4-31-5.8-70.4-9.5-98.1 10.8C5 68.2-7.8 76.7-8 74.6-8 66.4 1.2 47.8 22.3 39c26.1-11 65-11.5 87.5-9.1 1.1 0 5-.9 5.2-1 34.1-14.7 73.4-10.8 109.8-4.6 5.3 1 52 12.6 70.7 5.6 30.8-12.6 63.6-21.7 96.8-18.1.3 0 4.5 25.5 1.2 27.2-2.6 1.4-7 5-8.6 6.9a10 10 0 0 0-2.2 6.9A61.1 61.1 0 0 1 370.3 94ZM243.7 78.8c4-5.7 5.2-18.4 3.5-27.6-.8-4.7-2.4-8.4-4.4-10.3a6 6 0 0 0-4.6-1.7c-.9 0-1.9.3-3 .9a92 92 0 0 0-47.6-9.7c-13 0-22.2 3-28.5 7.9-7.6 5.7-11 14-11.2 22.9a51.3 51.3 0 0 0 11.3 31.4 42.6 42.6 0 0 0 26.4 16.8c11.5 2.3 23.3 0 33.5-5.3a57.9 57.9 0 0 0 24.6-25.3Zm113.8 6c6.6-7.8 11-18 11.6-28 .6-9-1.8-18-8.6-25.6-6-5.2-16.9-5.3-28.3-2.4a86.9 86.9 0 0 0-35 17.7c-1.2.7-2.3 1.7-3.2 4v1c-1.6 7-.7 14.2 2 20.8A47.8 47.8 0 0 0 309.9 91c8 6.6 16.4 8.6 24.2 7.5a38.3 38.3 0 0 0 23.4-13.8Z" fill="#fff"/><path d="M294.4 27C325.6 14.4 359 5.3 392.6 8.9c2.8-1 6.3-.2 7.5 3.8 12 36.6-14.8 26.4-14.4 40 2.8 76.8-100.3 89.9-111.9 11.6l-.2.1c-16.7 15.6-20.2 40.9-39.8 54.4a65 65 0 0 1-103-45.5l-.2-.7c-2.4-10.6-5.3-13.2-17.3-13.1l-1.9-.4c-31-6.1-72.3-11.6-101 9.4-6.2 3.6-6.4 13-11.7 17-5.8 1-9.3-5.8-9.7-10.6-1-47.8 84.6-51.2 122.8-47.1.8-.8 2.3-.7 2.9.2 34.6-15 73.6-12.9 110.6-6.6 23 4.5 45.7 14.6 69.1 5.8Zm95.1-9.4c-18.7-1-36 .1-54.3 4.6-9.7 2.3-17.1 5.3-26.4 8.8C251 56.6 244.4 11.1 115 29c1.7 7.1 2 14.2 2 21 26.5-1 20.3 24.2 30.2 41.9l.3.5a54.4 54.4 0 0 0 76 20.8c23-13.4 25.1-47.2 48-60.7 19.7-.8 11.8 26 22.6 37a44.8 44.8 0 0 0 66.4 4c8.9-9.2 13.6-20.8 13.9-33.3.5-8-.9-16.1 5.1-21.7 4.3-4.3 11.8-2.9 12.6-9.4.6-3.8-1-8-2.5-11.5ZM186.3 28.1c18.6-1 38.2 2.3 54.2 11.4 11.8-9.4 14.7 28 6.8 38.7-11.3 23.1-37.6 38.3-62.9 33.3-39.4-5.7-67-83.5 1.9-83.4Zm53 14-1-.2c-17-2.7-63.7-14.8-81.7 4.3-17.4 31.7 26.8 84.9 72.9 42.5 12.8-13 17.8-28.8 9.8-46.7Zm54.3 4c8.8-10.5 54-31.8 69.7-18.2 28.8 32.2-16.8 97.4-55 65.6C295.6 83 287.3 66 291 49.7V49c0-.3 0-.2.3-.5.5-1.3 1.4-2 2.4-2.5Zm69.3 19.5C372.6 13 332.1 33 299 47c1.7 1.6 1.7 3.9 1.2 5.7-3.5 39 44 61 62.8 12.9ZM111.2 30.2C97.2 35 5.5 26.5-3 69.5 6 55 24.5 49.3 41.2 46.2c22.7-4.3 45.2-1.8 67.5 2.6l.5-4.6c.5-4.9 1-9.5 2-14Z" fill="#000"/></g></g></g></svg>