<svg xmlns="http://www.w3.org/2000/svg" viewBox="0 0 200 200" fill="none" shape-rendering="auto"><metadata xmlns:rdf="http://www.w3.org/1999/02/22-rdf-syntax-ns#" xmlns:xsi="http://www.w3.org/2001/XMLSchema-instance" xmlns:dc="http://purl.org/dc/elements/1.1/" xmlns:dcterms="http://purl.org/dc/terms/"><rdf:RDF><rdf:Description><dc:title>Fun Emoji Set</dc:title><dc:creator>Davis Uche</dc:creator><dc:source xsi:type="dcterms:URI">https://www.figma.com/community/file/968125295144990435</dc:source><dcterms:license xsi:type="dcterms:URI">https://creativecommons.org/licenses/by/4.0/</dcterms:license><dc:rights>Remix of „Fun Emoji Set” (https://www.figma.com/community/file/968125295144990435) by „Davis Uche”, licensed under „CC BY 4.0” (https://creativecommons.org/licenses/by/4.0/)</dc:rights></rdf:Description></rdf:RDF></metadata><mask id="viewboxMask"><rect width="200" height="200" rx="0" ry="0" x="0" y="0" fill="#fff" /></mask><g mask="url(#viewboxMask)"><rect fill="#71cf62" width="200" height="200" x="0" y="0" /><g transform="matrix(1.5625 0 0 1.5625 37.5 110.94)"><path fill-rule="evenodd" clip-rule="evenodd" d="M6.03 37.05c0-48 70-48 70 0h-70Z" fill="#2B1607"/><path fill-rule="evenodd" clip-rule="evenodd" d="M17.12 11.74c11.86-13.39 34.95-13.28 48 0h-48Z" fill="#fff"/><path d="M7.02 29.8h67.96c.32 2.32.47 4.66.44 7h-69c0-2.35.2-4.7.6-7Z" fill="#fff"/><path d="M75.97 38H6.03A1.03 1.03 0 0 1 5 36.97C5 11.6 23.66 0 41 0c17.36 0 36 11.61 36 36.93A1.02 1.02 0 0 1 75.97 38Zm-68.9-2.06h67.8c-.22-10.34-3.87-19-10.58-25.13a34.44 34.44 0 0 0-23.34-8.7C24.89 2.12 7.58 12.72 7.07 35.94Z" fill="#000"/></g><g transform="matrix(1.5625 0 0 1.5625 31.25 59.38)"><path d="M74.46 30.06a13 13 0 0 1-13-13v-.66C61.46 5.95 73.01-.82 80.39.15c6.54.83 7.07 5.02 7.07 11.24v5.67a13.01 13.01 0 0 1-13 13Z" fill="#000"/><path d="M70.28 9.73a2.29 2.29 0 1 0 0-4.58 2.29 2.29 0 0 0 0 4.58Z" fill="#fff"/><path opacity=".1" d="M74.52 18.54a5.32 5.32 0 1 0 0-10.65 5.32 5.32 0 0 0 0 10.65Z" fill="#fff"/><path d="M13.47 30.06a13.01 13.01 0 0 0 12.99-13v-.66C26.46 5.95 14.92-.82 7.53.15.97.98.46 5.17.46 11.39v5.67a13 13 0 0 0 13 13Z" fill="#000"/><path d="M9.3 9.73a2.29 2.29 0 1 0 0-4.58 2.29 2.29 0 0 0 0 4.58Z" fill="#fff"/><path opacity=".1" d="M13.54 18.54a5.32 5.32 0 1 0 0-10.65 5.32 5.32 0 0 0 0 10.65Z" fill="#fff"/></g></g></svg>